<svg xmlns="http://www.w3.org/2000/svg" width="256" height="256"><path fill="#fff" d="M0 0h256v256H0z"/><path d="M128 16a56.042 56.042 0 0 0-56.042 56.042v56.453a69.883 69.883 0 0 0-13.842 41.621A69.883 69.883 0 0 0 128 240a69.883 69.883 0 0 0 69.883-69.884 69.883 69.883 0 0 0-13.84-41.609V72.042A56.042 56.042 0 0 0 128 16zm0 14.01a42.032 42.032 0 0 1 42.032 42.032v42.326A69.883 69.883 0 0 0 128 100.233a69.883 69.883 0 0 0-42.032 14.163V72.042A42.032 42.032 0 0 1 128 30.011zm-7.005 91.07h14.01v7.64a42.032 42.032 0 0 1 35.027 41.396A42.032 42.032 0 0 1 128 212.148a42.032 42.032 0 0 1-42.032-42.032 42.032 42.032 0 0 1 35.027-41.436v-7.6zm0 21.015v8.235a21.016 21.016 0 0 0-14.01 19.786A21.016 21.016 0 0 0 128 191.132a21.016 21.016 0 0 0 21.016-21.016 21.016 21.016 0 0 0-14.01-19.79v-8.23h-14.011z" fill="#191919" fill-rule="evenodd"/></svg>